<svg width="70" height="82" viewBox="0 0 70 82" fill="none" xmlns="http://www.w3.org/2000/svg">
<path d="M8.4744 66.0947V78.7307H15.5844V76.3547H11.5524V66.0947H8.4744ZM29.4905 72.3767C29.4905 68.5787 26.6285 65.9147 23.0285 65.9147C19.4465 65.9147 16.5305 68.5787 16.5305 72.3767C16.5305 76.1747 19.4465 78.8567 23.0285 78.8567C26.6105 78.8567 29.4905 76.1747 29.4905 72.3767ZM19.6805 72.3767C19.6805 70.1267 20.9765 68.7047 23.0285 68.7047C25.0445 68.7047 26.3585 70.1267 26.3585 72.3767C26.3585 74.5907 25.0445 76.0487 23.0285 76.0487C20.9765 76.0487 19.6805 74.5907 19.6805 72.3767ZM37.1069 65.9507C33.3269 65.9507 30.6809 68.6147 30.6809 72.3947C30.6809 76.1747 33.3449 78.8207 37.1249 78.8207C40.4549 78.8207 42.5609 76.6427 43.2089 74.4647V71.6027H36.5129V73.8707H40.4189C39.9509 75.2927 38.8889 76.1027 37.3589 76.1027C35.1449 76.1027 33.8129 74.7347 33.8129 72.3947C33.8129 70.1987 35.1269 68.7947 37.1069 68.7947C38.2589 68.7947 39.1229 69.2447 39.5909 70.0907H42.9929C42.3269 67.4987 40.1309 65.9507 37.1069 65.9507ZM44.9139 78.7307H47.9919V66.0947H44.9139V78.7307ZM58.4484 66.0947V73.9247L53.3004 66.0947H50.2224V78.7307H53.3004V70.9367L58.4484 78.7307H61.5264V66.0947H58.4484Z" fill="#333333"/>
<path d="M54.0677 34.7887C51.1923 31.8581 47.7697 29.6885 44.0356 28.3752C48.035 25.5677 50.6625 20.869 50.6625 15.556C50.6625 6.97845 43.8157 0 35.4 0C26.9843 0 20.1375 6.97845 20.1375 15.556C20.1375 20.869 22.765 25.5677 26.7645 28.3752C23.0304 29.6885 19.6079 31.8581 16.7324 34.7887C11.7461 39.871 9 46.6281 9 53.8154H13.125C13.125 41.2967 23.1175 31.112 35.4 31.112C47.6825 31.112 57.675 41.2967 57.675 53.8154H61.8C61.8 46.6281 59.0539 39.871 54.0677 34.7887ZM35.4 26.9077C29.2588 26.9077 24.2625 21.8154 24.2625 15.556C24.2625 9.29661 29.2588 4.20433 35.4 4.20433C41.5412 4.20433 46.5375 9.29661 46.5375 15.556C46.5375 21.8154 41.5412 26.9077 35.4 26.9077Z" fill="#333333"/>
</svg>
