<svg id="bef1c3ce-50f3-477c-bcf5-5b9aeb5a3b4d" data-name="Layer 1" xmlns="http://www.w3.org/2000/svg" width="274.37543" height="76.20119" viewBox="0 0 274.37543 76.20119">
  <title>EMS-logo-white</title>
  <g>
    <rect width="76.20119" height="76.20119" rx="14.30597" fill="#fff"/>
    <g>
      <polygon points="19.114 19.166 57.087 19.166 57.087 26.719 27.391 26.719 19.114 19.166" fill="#072051" fill-rule="evenodd"/>
      <polygon points="27.391 49.482 57.087 49.482 57.087 57.036 19.114 57.036 27.391 49.482" fill="#072051" fill-rule="evenodd"/>
      <path d="M23.11382,20.27646l28.14389,18.935H38.01352l-5.79433-.51735a1.86856,1.86856,0,0,1-1.44858-1.0347Z" transform="translate(-4 -1.1109)" fill="#ef4e36" fill-rule="evenodd"/>
      <path d="M23.11382,58.14654l28.14389-18.935H38.01352l-5.79433.51735a1.86856,1.86856,0,0,0-1.44858,1.0347Z" transform="translate(-4 -1.1109)" fill="#bdbfc1" fill-rule="evenodd"/>
    </g>
  </g>
  <g>
    <g>
      <path d="M97.24055,18.64035v7.72023h11.40276v4.71065H97.24055v8.3371h13.216V44.119H92.51121V13.98578h17.94533v4.65457Z" transform="translate(-4 -1.1109)" fill="#fff"/>
      <path d="M144.88914,13.33153V44.119H140.1598V27.40739L130.159,43.61427h-.03739L120.10215,27.3887V44.119h-4.72934V13.33153h.35517l14.41234,21.90825L144.534,13.33153Z" transform="translate(-4 -1.1109)" fill="#fff"/>
      <path d="M148.94553,38.82885l3.73861-2.67311a7.548,7.548,0,0,0,6.74819,3.70123c3.38345,0,5.94439-1.6263,5.94439-3.92555,0-2.78526-3.96292-4.46763-7.47722-5.98177-3.533-1.57022-7.45852-3.40214-7.45852-8.13148,0-4.935,4.2807-8.37449,9.70169-8.37449,4.2994,0,7.51461,2.07493,8.74835,5.3836l-3.5143,2.4301a5.61968,5.61968,0,0,0-5.19666-3.17782c-2.76658,0-4.97236,1.71976-4.97236,3.85077,0,2.35532,2.78527,3.19651,6.44911,4.76673,4.76672,2.09362,8.468,4.39286,8.468,9.1409,0,5.34621-4.63588,8.78573-10.74851,8.78573C154.4226,44.62369,150.66529,42.30576,148.94553,38.82885Z" transform="translate(-4 -1.1109)" fill="#fff"/>
    </g>
    <g>
      <path d="M100.7105,63.157H95.36288l-.77028,1.71729h-1.921l5.31275-11.52892h.1054l5.312,11.52892h-1.92017Zm-.68628-1.52076-1.98356-4.41487L96.05,61.63628Z" transform="translate(-4 -1.1109)" fill="#fff"/>
      <path d="M110.61168,55.33611h-3.028v9.53822h-1.7799V55.33611h-3.02725v-1.7593h7.83519Z" transform="translate(-4 -1.1109)" fill="#fff"/>
      <path d="M119.378,55.33611H116.35v9.53822H114.5701V55.33611h-3.02726v-1.7593h7.8352Z" transform="translate(-4 -1.1109)" fill="#fff"/>
      <path d="M122.83957,55.32184V58.216h4.2754v1.76643h-4.2754v3.12552h4.95535v1.76642H121.0668V53.57681h6.72812v1.745Z" transform="translate(-4 -1.1109)" fill="#fff"/>
      <path d="M138.99972,53.54908V65.07087h-.084l-7.22578-7.54832v7.366h-1.77277V53.38028h.09114l7.21152,7.53406V53.54908Z" transform="translate(-4 -1.1109)" fill="#fff"/>
      <path d="M150.4906,59.23984c0,3.46866-2.23636,5.63449-5.82469,5.63449h-3.21745V53.57681h3.21745C148.25424,53.56968,150.4906,55.74265,150.4906,59.23984Zm-1.79416-.00713a3.68965,3.68965,0,0,0-4.03687-3.8966h-1.44389v7.7718h1.4645A3.67148,3.67148,0,0,0,148.69644,59.23271Z" transform="translate(-4 -1.1109)" fill="#fff"/>
      <path d="M158.47241,63.157h-5.34762l-.77187,1.71729h-1.91938l5.31117-11.52892h.10619l5.31275,11.52892h-1.921Zm-.68787-1.52076-1.98277-4.41487-1.9907,4.41487Z" transform="translate(-4 -1.1109)" fill="#fff"/>
      <path d="M171.77647,53.54908V65.07087h-.084l-7.22578-7.54832v7.366h-1.77356V53.38028h.09193l7.21152,7.53406V53.54908Z" transform="translate(-4 -1.1109)" fill="#fff"/>
      <path d="M173.68792,59.23271a5.90444,5.90444,0,0,1,5.831-5.85243,5.71463,5.71463,0,0,1,3.92434,1.72442l-1.03022,1.39476a4.19784,4.19784,0,0,0-2.929-1.31789,4.04779,4.04779,0,0,0,.00634,8.09513,4.20036,4.20036,0,0,0,2.93058-1.34562l1.02229,1.42963a5.38319,5.38319,0,0,1-3.89581,1.69589A5.881,5.881,0,0,1,173.68792,59.23271Z" transform="translate(-4 -1.1109)" fill="#fff"/>
      <path d="M186.90165,55.32184V58.216h4.27461v1.76643h-4.27461v3.12552h4.95455v1.76642h-6.72811V53.57681h6.72811v1.745Z" transform="translate(-4 -1.1109)" fill="#fff"/>
      <path d="M207.88,64.9726a5.93938,5.93938,0,0,1-2.88778-1.18475,4.38743,4.38743,0,0,1-3.20318,1.30362,3.61005,3.61005,0,0,1-3.86094-3.52493,4.008,4.008,0,0,1,1.9067-3.25944,4.81656,4.81656,0,0,1-.68787-2.16505,2.983,2.983,0,0,1,5.9293-.30827l-1.71651.32175a1.35135,1.35135,0,0,0-1.28222-1.21883,1.21453,1.21453,0,0,0-1.17762,1.268c0,1.31075,1.75137,3.58119,3.59467,5.20022a5.958,5.958,0,0,0,.46914-2.17931l1.669-.02139a7.73574,7.73574,0,0,1-.73542,3.28718,4.05144,4.05144,0,0,0,1.98911.83448ZM203.57056,62.695a18.45,18.45,0,0,1-2.8957-3.08431,2.25481,2.25481,0,0,0-1.06509,1.84329,1.86688,1.86688,0,0,0,2.089,1.89957A2.82666,2.82666,0,0,0,203.57056,62.695Z" transform="translate(-4 -1.1109)" fill="#fff"/>
      <path d="M214.06134,53.57681h3.77852a3.69991,3.69991,0,1,1,0,7.37953h-2.005v3.918h-1.77356Zm5.97843,3.71433a2.09017,2.09017,0,0,0-2.19991-1.955h-2.005v3.86173l2.005.00634A2.06742,2.06742,0,0,0,220.03977,57.29114Z" transform="translate(-4 -1.1109)" fill="#fff"/>
      <path d="M228.5145,63.157h-5.34762l-.77187,1.71729h-1.91937l5.31116-11.52892h.10619l5.31275,11.52892h-1.921Zm-.68787-1.52076-1.98277-4.41487-1.9907,4.41487Z" transform="translate(-4 -1.1109)" fill="#fff"/>
      <path d="M233.10927,60.04579l-3.74841-6.469h1.997l2.62785,4.49968,2.63577-4.49968h1.997l-3.75,6.469v4.82854h-1.75929Z" transform="translate(-4 -1.1109)" fill="#fff"/>
      <path d="M246.361,64.87433l-3.04152-4.37366h-1.38683v4.37366h-1.77356l-.00792-11.29752h3.51225a3.73521,3.73521,0,0,1,3.82607,3.63033,3.30635,3.30635,0,0,1-2.23478,3.14692l3.2856,4.52027ZM243.70466,59.029a1.93013,1.93013,0,0,0,1.95582-1.8639,1.88606,1.88606,0,0,0-1.95582-1.829h-1.7799V59.029Z" transform="translate(-4 -1.1109)" fill="#fff"/>
      <path d="M249.4707,59.23984a5.84139,5.84139,0,1,1,5.831,5.81676A5.86109,5.86109,0,0,1,249.4707,59.23984Zm9.8885-.01427a4.05116,4.05116,0,1,0-4.05747,4.03687A4.06956,4.06956,0,0,0,259.3592,59.22557Z" transform="translate(-4 -1.1109)" fill="#fff"/>
      <path d="M269.86742,63.10791v1.76642h-6.81211V53.57681h1.77356v9.5311Z" transform="translate(-4 -1.1109)" fill="#fff"/>
      <path d="M278.37543,63.10791v1.76642h-6.81211V53.57681h1.77355v9.5311Z" transform="translate(-4 -1.1109)" fill="#fff"/>
    </g>
  </g>
</svg>
