<?xml version="1.0" encoding="UTF-8"?>
<!DOCTYPE svg PUBLIC "-//W3C//DTD SVG 1.1//EN" "http://www.w3.org/Graphics/SVG/1.1/DTD/svg11.dtd">
<!-- Creator: CorelDRAW 2020 (64-Bit) -->
<svg xmlns="http://www.w3.org/2000/svg" xml:space="preserve" width="3.18027in" height="1.38714in" version="1.1" style="shape-rendering:geometricPrecision; text-rendering:geometricPrecision; image-rendering:optimizeQuality; fill-rule:evenodd; clip-rule:evenodd"
viewBox="0 0 3165.78 1380.81"
 xmlns:xlink="http://www.w3.org/1999/xlink"
 xmlns:xodm="http://www.corel.com/coreldraw/odm/2003">
 <defs>
  <style type="text/css">
   <![CDATA[
    .fil0 {fill:#FEFEFE}
    .fil1 {fill:#6DC9CA}
    .fil2 {fill:#08A89A}
    .fil3 {fill:#076E65}
   ]]>
  </style>
 </defs>
 <g id="Layer_x0020_1">
  <metadata id="CorelCorpID_0Corel-Layer"/>
  <path class="fil0" d="M2390.23 900.25l38.59 0 105.85 -225.09 477.45 0 104.75 225.09 40.8 0 -366.08 -777.9 -35.28 0 -366.08 777.9zm-2228.32 268.7c-1.67,-1.07 -4.41,-3.15 -8.22,-6.25 -3.81,-3.1 -8.46,-6.25 -13.99,-9.47 -5.54,-3.21 -11.79,-6.13 -18.7,-8.69 -6.91,-2.56 -14.35,-3.81 -22.33,-3.81 -9.41,0 -17.51,1.13 -24.29,3.39 -6.79,2.27 -12.39,5.24 -16.79,8.99 -4.41,3.75 -7.62,7.98 -9.71,12.68 -2.08,4.7 -3.15,9.47 -3.15,14.23 0,6.67 2.2,12.27 6.61,16.79 4.41,4.53 10.24,8.46 17.51,11.79 7.26,3.34 15.54,6.31 24.77,8.99 9.23,2.68 18.64,5.54 28.23,8.51 9.59,2.98 19,6.31 28.23,10.01 9.23,3.69 17.45,8.28 24.77,13.76 7.32,5.48 13.16,12.03 17.57,19.65 4.46,7.62 6.67,16.85 6.67,27.69 0,12.51 -2.62,23.82 -7.8,34 -5.24,10.19 -12.33,18.94 -21.37,26.14 -8.99,7.26 -19.59,12.86 -31.74,16.79 -12.15,3.99 -25.19,5.96 -39.12,5.96 -9.29,0 -18.46,-1.07 -27.57,-3.16 -9.11,-2.08 -17.86,-5.12 -26.26,-9.17 -8.4,-3.99 -16.26,-8.87 -23.52,-14.59 -7.26,-5.78 -13.76,-12.33 -19.47,-19.71 -1.55,-1.9 -2.27,-3.81 -2.2,-5.72 0.06,-1.9 1.07,-3.69 3.1,-5.36l14.11 -11.79c2.02,-1.67 3.99,-2.44 5.89,-2.26 1.9,0.18 3.63,1.25 5.18,3.15l2.32 2.32c5,5.6 10.72,10.42 17.09,14.53 6.37,4.11 12.74,7.51 19.11,10.18 6.37,2.68 12.45,4.71 18.28,6.02 5.84,1.31 10.78,1.96 14.83,1.96 7.27,0 14.71,-0.95 22.33,-2.86 7.62,-1.9 14.59,-4.82 20.9,-8.75 6.31,-3.93 11.49,-8.94 15.54,-14.95 4.05,-6.02 6.07,-13.04 6.07,-21.14 0,-6.79 -1.96,-12.56 -5.95,-17.27 -3.99,-4.7 -9.41,-8.81 -16.2,-12.33 -6.79,-3.52 -14.71,-6.67 -23.82,-9.47 -9.11,-2.8 -18.87,-5.72 -29.24,-8.81 -14.29,-4.17 -26.56,-8.57 -36.8,-13.16 -10.24,-4.59 -18.64,-9.64 -25.25,-15.18 -6.61,-5.54 -11.49,-11.73 -14.59,-18.58 -3.1,-6.85 -4.64,-14.53 -4.64,-23.1 0,-10.84 2.2,-20.78 6.55,-29.77 4.35,-8.99 10.48,-16.73 18.46,-23.28 7.98,-6.55 17.62,-11.67 28.88,-15.3 11.26,-3.63 23.82,-5.42 37.75,-5.42 7.5,0 15.3,0.95 23.4,2.86 8.1,1.91 16.02,4.53 23.7,7.92 7.68,3.39 14.89,7.44 21.62,12.15 6.79,4.7 12.56,9.94 17.51,15.66 1.67,1.79 2.56,3.63 2.62,5.6 0.06,1.96 -0.89,3.87 -2.8,5.66l-12.74 12.15c-1.9,1.79 -3.87,2.62 -5.84,2.5 -1.96,-0.12 -3.81,-1.01 -5.47,-2.68zm240.1 74.67c0,9.41 1.25,18.4 3.69,27.03 2.44,8.63 5.84,16.73 10.24,24.29 4.41,7.56 9.71,14.47 15.9,20.67 6.25,6.19 13.1,11.49 20.66,15.9 7.56,4.41 15.72,7.8 24.36,10.24 8.63,2.44 17.62,3.69 27.09,3.69 9.29,0 18.28,-1.25 26.97,-3.69 8.69,-2.44 16.79,-5.84 24.29,-10.24 7.5,-4.41 14.35,-9.7 20.6,-15.9 6.19,-6.19 11.49,-13.1 15.9,-20.67 4.41,-7.56 7.8,-15.66 10.24,-24.29 2.44,-8.63 3.69,-17.62 3.69,-27.03 0,-14.05 -2.68,-27.27 -8.04,-39.6 -5.36,-12.33 -12.62,-23.04 -21.79,-32.21 -9.23,-9.17 -19.95,-16.44 -32.27,-21.79 -12.39,-5.36 -25.54,-8.04 -39.6,-8.04 -9.47,0 -18.46,1.19 -27.09,3.63 -8.64,2.44 -16.79,5.9 -24.36,10.3 -7.56,4.41 -14.41,9.7 -20.66,15.9 -6.19,6.19 -11.49,13.04 -15.9,20.54 -4.41,7.51 -7.8,15.6 -10.24,24.3 -2.44,8.69 -3.69,17.68 -3.69,26.97zm102.3 -135.94c12.51,0 24.53,1.61 36.15,4.82 11.67,3.21 22.51,7.8 32.57,13.75 10.06,5.96 19.23,13.04 27.63,21.32 8.34,8.28 15.42,17.51 21.32,27.69 5.89,10.18 10.48,21.14 13.76,32.81 3.27,11.67 4.94,23.82 4.94,36.44 0,12.51 -1.61,24.53 -4.82,36.15 -3.21,11.61 -7.8,22.45 -13.76,32.51 -5.95,10.06 -13.1,19.23 -21.37,27.51 -8.28,8.28 -17.51,15.36 -27.63,21.26 -10.12,5.89 -21.02,10.48 -32.69,13.69 -11.67,3.22 -23.82,4.82 -36.44,4.82 -12.69,0 -24.77,-1.61 -36.38,-4.82 -11.61,-3.21 -22.51,-7.8 -32.57,-13.76 -10.06,-5.95 -19.23,-13.1 -27.51,-21.37 -8.28,-8.28 -15.36,-17.45 -21.26,-27.51 -5.9,-10.06 -10.48,-20.9 -13.7,-32.51 -3.21,-11.61 -4.82,-23.7 -4.82,-36.32 0,-12.51 1.61,-24.59 4.82,-36.2 3.21,-11.61 7.8,-22.45 13.76,-32.57 5.95,-10.12 13.1,-19.35 21.37,-27.69 8.28,-8.34 17.51,-15.48 27.63,-21.37 10.12,-5.9 21.02,-10.48 32.63,-13.76 11.61,-3.28 23.7,-4.88 36.38,-4.88zm474.71 234.19c2.14,0 3.99,0.72 5.54,2.2 1.55,1.49 2.32,3.57 2.32,6.2l0 18.4c0,2.14 -0.71,3.99 -2.14,5.54 -1.43,1.55 -3.34,2.32 -5.71,2.32l-151.96 0c-5.3,0 -7.92,-2.62 -7.92,-7.86l0 -249.73c0,-2.14 0.72,-3.99 2.14,-5.54 1.43,-1.55 3.52,-2.32 6.13,-2.32l18.46 0c2.32,0 4.17,0.65 5.66,1.96 1.49,1.31 2.26,3.28 2.26,5.89l0 222.94 125.23 0zm205.26 -75.21c0,11.31 1.67,21.86 4.94,31.62 3.28,9.77 8.1,18.22 14.47,25.43 6.37,7.21 14.11,12.86 23.28,16.97 9.17,4.11 19.65,6.19 31.44,6.19 12.62,0 23.64,-2.08 33.05,-6.25 9.41,-4.17 17.21,-9.88 23.34,-17.09 6.13,-7.2 10.72,-15.66 13.76,-25.42 3.04,-9.77 4.52,-20.25 4.52,-31.44l0 -147.73c0,-2.14 0.83,-3.99 2.44,-5.54 1.61,-1.55 3.57,-2.32 5.96,-2.32l17.15 0c2.26,0 4.35,0.71 6.25,2.14 1.9,1.43 2.86,3.34 2.86,5.71l0 152.67c0,16.08 -2.86,30.85 -8.57,44.24 -5.71,13.4 -13.52,24.89 -23.46,34.48 -9.94,9.59 -21.55,17.09 -34.84,22.45 -13.28,5.36 -27.45,8.04 -42.46,8.04 -15.01,0 -29.11,-2.86 -42.34,-8.57 -13.22,-5.72 -24.77,-13.58 -34.72,-23.52 -9.94,-9.94 -17.8,-21.55 -23.52,-34.77 -5.72,-13.22 -8.57,-27.33 -8.57,-42.34l0 -152.67c0,-1.78 0.71,-3.51 2.08,-5.24 1.37,-1.72 3.15,-2.62 5.42,-2.62l19.12 0c1.78,0 3.63,0.77 5.54,2.32 1.9,1.55 2.86,3.4 2.86,5.54l0 147.73zm538.6 -155.59c2.14,0 4.11,0.65 5.84,1.96 1.73,1.31 2.68,3.28 2.92,5.89l0 18.04c0,2.38 -0.71,4.41 -2.14,6.13 -1.43,1.73 -3.63,2.62 -6.61,2.62l-74.31 0 0 222.4c0,2.14 -0.71,4.05 -2.14,5.71 -1.43,1.67 -3.45,2.5 -6.07,2.5l-18.04 0c-2.14,0 -4.05,-0.77 -5.72,-2.32 -1.67,-1.55 -2.5,-3.52 -2.5,-5.89l0 -222.4 -74.67 0c-2.38,0 -4.35,-0.72 -5.89,-2.14 -1.55,-1.43 -2.32,-3.63 -2.32,-6.61l0 -18.04c0,-2.38 0.78,-4.28 2.32,-5.71 1.55,-1.43 3.51,-2.14 5.89,-2.14l183.46 0zm177.76 7.86c0,-2.14 0.71,-3.99 2.08,-5.54 1.37,-1.55 3.28,-2.32 5.78,-2.32l18.58 0c2.14,0 4.05,0.71 5.71,2.14 1.67,1.43 2.5,3.34 2.5,5.71l0 249.56c0,5.24 -2.74,7.86 -8.21,7.86l-18.58 0c-5.24,0 -7.86,-2.62 -7.86,-7.86l0 -249.56zm247.07 124.69c0,9.41 1.25,18.4 3.69,27.03 2.44,8.63 5.84,16.73 10.24,24.29 4.41,7.56 9.71,14.47 15.9,20.67 6.25,6.19 13.1,11.49 20.66,15.9 7.56,4.41 15.72,7.8 24.36,10.24 8.63,2.44 17.62,3.69 27.09,3.69 9.29,0 18.28,-1.25 26.97,-3.69 8.69,-2.44 16.79,-5.84 24.29,-10.24 7.5,-4.41 14.35,-9.7 20.6,-15.9 6.19,-6.19 11.49,-13.1 15.9,-20.67 4.41,-7.56 7.8,-15.66 10.24,-24.29 2.44,-8.63 3.69,-17.62 3.69,-27.03 0,-14.05 -2.68,-27.27 -8.04,-39.6 -5.36,-12.33 -12.62,-23.04 -21.79,-32.21 -9.23,-9.17 -19.95,-16.44 -32.27,-21.79 -12.39,-5.36 -25.54,-8.04 -39.6,-8.04 -9.47,0 -18.46,1.19 -27.09,3.63 -8.64,2.44 -16.79,5.9 -24.36,10.3 -7.56,4.41 -14.41,9.7 -20.66,15.9 -6.19,6.19 -11.49,13.04 -15.9,20.54 -4.41,7.51 -7.8,15.6 -10.24,24.3 -2.44,8.69 -3.69,17.68 -3.69,26.97zm102.3 -135.94c12.51,0 24.53,1.61 36.15,4.82 11.67,3.21 22.51,7.8 32.57,13.75 10.06,5.96 19.23,13.04 27.63,21.32 8.34,8.28 15.42,17.51 21.32,27.69 5.89,10.18 10.48,21.14 13.76,32.81 3.27,11.67 4.94,23.82 4.94,36.44 0,12.51 -1.61,24.53 -4.82,36.15 -3.21,11.61 -7.8,22.45 -13.76,32.51 -5.95,10.06 -13.1,19.23 -21.37,27.51 -8.28,8.28 -17.51,15.36 -27.63,21.26 -10.12,5.89 -21.02,10.48 -32.69,13.69 -11.67,3.22 -23.82,4.82 -36.44,4.82 -12.69,0 -24.77,-1.61 -36.38,-4.82 -11.61,-3.21 -22.51,-7.8 -32.57,-13.76 -10.06,-5.95 -19.23,-13.1 -27.51,-21.37 -8.28,-8.28 -15.36,-17.45 -21.26,-27.51 -5.9,-10.06 -10.48,-20.9 -13.7,-32.51 -3.21,-11.61 -4.82,-23.7 -4.82,-36.32 0,-12.51 1.61,-24.59 4.82,-36.2 3.21,-11.61 7.8,-22.45 13.76,-32.57 5.95,-10.12 13.1,-19.35 21.37,-27.69 8.28,-8.34 17.51,-15.48 27.63,-21.37 10.12,-5.9 21.02,-10.48 32.63,-13.76 11.61,-3.28 23.7,-4.88 36.38,-4.88zm511.5 268.85c-2.62,0 -4.88,-1.31 -6.79,-3.93l-155.95 -209.13 0 205.08c0,5.24 -2.74,7.86 -8.22,7.86l-18.04 0c-5.24,0 -7.86,-2.62 -7.86,-7.86l0 -249.26c0,-2.38 0.71,-4.35 2.14,-5.9 1.43,-1.55 3.33,-2.32 5.71,-2.32l23.94 0c3.1,0 5.6,1.31 7.51,3.93l152.02 202.16 0 -199.48c0.72,-4.41 3.34,-6.61 7.86,-6.61l18.04 0c2.14,0 4.17,0.71 6.01,2.14 1.85,1.43 2.74,3.34 2.74,5.71l0 249.73c0,5.24 -2.92,7.86 -8.75,7.86l-20.37 0zm367.11 -207.58c-1.67,-1.07 -4.41,-3.15 -8.22,-6.25 -3.81,-3.1 -8.46,-6.25 -13.99,-9.47 -5.54,-3.21 -11.79,-6.13 -18.7,-8.69 -6.91,-2.56 -14.35,-3.81 -22.33,-3.81 -9.41,0 -17.51,1.13 -24.29,3.39 -6.79,2.27 -12.39,5.24 -16.79,8.99 -4.41,3.75 -7.62,7.98 -9.71,12.68 -2.08,4.7 -3.15,9.47 -3.15,14.23 0,6.67 2.2,12.27 6.61,16.79 4.41,4.53 10.24,8.46 17.51,11.79 7.26,3.34 15.54,6.31 24.77,8.99 9.23,2.68 18.64,5.54 28.23,8.51 9.59,2.98 19,6.31 28.23,10.01 9.23,3.69 17.45,8.28 24.77,13.76 7.32,5.48 13.16,12.03 17.57,19.65 4.46,7.62 6.67,16.85 6.67,27.69 0,12.51 -2.62,23.82 -7.8,34 -5.24,10.19 -12.33,18.94 -21.37,26.14 -8.99,7.26 -19.59,12.86 -31.74,16.79 -12.15,3.99 -25.19,5.96 -39.12,5.96 -9.29,0 -18.46,-1.07 -27.57,-3.16 -9.11,-2.08 -17.86,-5.12 -26.26,-9.17 -8.4,-3.99 -16.26,-8.87 -23.52,-14.59 -7.26,-5.78 -13.76,-12.33 -19.47,-19.71 -1.55,-1.9 -2.27,-3.81 -2.2,-5.72 0.06,-1.9 1.07,-3.69 3.1,-5.36l14.11 -11.79c2.02,-1.67 3.99,-2.44 5.89,-2.26 1.9,0.18 3.63,1.25 5.18,3.15l2.32 2.32c5,5.6 10.72,10.42 17.09,14.53 6.37,4.11 12.74,7.51 19.11,10.18 6.37,2.68 12.45,4.71 18.28,6.02 5.84,1.31 10.78,1.96 14.83,1.96 7.27,0 14.71,-0.95 22.33,-2.86 7.62,-1.9 14.59,-4.82 20.9,-8.75 6.31,-3.93 11.49,-8.94 15.54,-14.95 4.05,-6.02 6.07,-13.04 6.07,-21.14 0,-6.79 -1.96,-12.56 -5.95,-17.27 -3.99,-4.7 -9.41,-8.81 -16.2,-12.33 -6.79,-3.52 -14.71,-6.67 -23.82,-9.47 -9.11,-2.8 -18.87,-5.72 -29.24,-8.81 -14.29,-4.17 -26.56,-8.57 -36.8,-13.16 -10.24,-4.59 -18.64,-9.64 -25.25,-15.18 -6.61,-5.54 -11.49,-11.73 -14.59,-18.58 -3.1,-6.85 -4.64,-14.53 -4.64,-23.1 0,-10.84 2.2,-20.78 6.55,-29.77 4.35,-8.99 10.48,-16.73 18.46,-23.28 7.98,-6.55 17.62,-11.67 28.88,-15.3 11.26,-3.63 23.82,-5.42 37.75,-5.42 7.5,0 15.3,0.95 23.4,2.86 8.1,1.91 16.02,4.53 23.7,7.92 7.68,3.39 14.89,7.44 21.62,12.15 6.79,4.7 12.56,9.94 17.51,15.66 1.67,1.79 2.56,3.63 2.62,5.6 0.06,1.96 -0.89,3.87 -2.8,5.66l-12.74 12.15c-1.9,1.79 -3.87,2.62 -5.84,2.5 -1.96,-0.12 -3.81,-1.01 -5.47,-2.68zm-577.4 -528l221.63 -474.47 222.74 474.47 -444.37 0zm-459.81 258.76l37.49 0 0 -742.93 275.67 0 0 -34.43 -587.71 0 0 34.43 274.56 0 0 742.93zm-935.05 0l549.12 0 0 -34.42 -511.63 0 0 -339.82 457.6 0 0 -34.43 -457.6 0 0 -334.26 506.11 0 0 -34.43 -543.6 0 0 777.36zm-1036.63 -877.62l-22.61 -22.09 1086.75 0 -511.31 511.3 388.94 388.94 -841.5 0 -100.27 100.27 947.21 0 22.08 22.08 -1086.23 0 511.3 -511.3 -388.96 -388.95 841.52 0 100.27 -100.27 -947.2 0z"/>
  <path class="fil1" d="M593.34 702.54l0 0 175.62 0 -87.81 87.81 -87.81 -87.81 -87.81 87.81 -87.8 -87.81 175.62 0zm-175.63 -382.47l175.62 0 0.01 0 175.61 0 -87.81 -87.81 -87.81 87.81 -87.82 -87.81 -87.81 87.81z"/>
  <path class="fil2" d="M944.58 878.16l-175.62 0 -87.81 -87.81 -87.81 87.81 -175.63 0 -87.81 -87.81 -87.81 87.81 175.62 0 87.81 -87.81 87.81 87.81 175.62 0 87.81 -87.81 87.81 87.81zm-702.5 -733.72l175.62 0 87.81 87.81 87.81 -87.81 175.62 0 87.81 87.81 87.81 -87.81 -175.62 0 -87.81 87.81 -87.81 -87.81 -175.62 0 -87.81 87.81 -87.81 -87.81zm175.62 175.62l175.62 0 0.01 0 175.61 0 -87.81 87.81 -87.81 -87.81 -87.82 87.81 -87.81 -87.81zm0.01 382.47l175.62 0 0 0 175.62 0 -87.81 -87.81 -87.81 87.81 -87.81 -87.81 -87.8 87.81z"/>
  <path class="fil3" d="M768.96 702.54l0 175.62 -87.81 -87.81 87.81 -87.81zm-351.25 -382.47l0 -175.62 -87.81 87.81 87.81 87.81zm175.63 -175.62l0 175.62 0 175.62 -87.82 -87.81 87.82 -87.81 -87.82 -87.81 87.82 -87.81zm175.61 175.62l0 -175.62 -87.81 87.81 87.81 87.81zm-175.61 382.47l0 -175.62 -87.82 87.81 87.82 87.81 -87.82 87.81 87.82 87.81 0 -175.62zm-175.63 0l0 175.62 -87.81 -87.81 87.81 -87.81z"/>
 </g>
</svg>
